<svg width="92" height="32" viewBox="0 0 92 32" fill="none" xmlns="http://www.w3.org/2000/svg">
<path d="M29.2178 0C30.7539 0.000639335 31.9998 1.24601 32 2.78223V29.2168C32 30.7532 30.754 31.9994 29.2178 32H2.7832C1.24643 32 0 30.7536 0 29.2168V27.3086H3.26562C3.54148 27.3083 3.76562 27.0845 3.76562 26.8086V17.8203C3.76562 15.7562 4.72055 14.4004 6.1377 14.4004C7.40042 14.4006 8.04779 15.2939 8.04785 17.2959V26.8086C8.04785 27.0847 8.27171 27.3086 8.54785 27.3086H12.8779C13.1536 27.3081 13.3779 27.0844 13.3779 26.8086V17.8203C13.3779 15.7562 14.3328 14.4004 15.75 14.4004C17.0125 14.4008 17.6601 15.294 17.6602 17.2959V26.8086C17.6602 27.0847 17.884 27.3086 18.1602 27.3086H22.4893C22.7652 27.3083 22.9893 27.0846 22.9893 26.8086V16.2178C22.9892 11.9975 20.617 10.0871 17.6289 10.0869C15.8687 10.0869 14.3547 10.7149 13.2402 12.0459C12.9849 12.3507 12.4658 12.3214 12.2344 11.998C11.3068 10.7 9.87257 10.0871 8.26367 10.0869C6.9359 10.0869 5.746 10.518 4.80371 11.4336C4.47493 11.7531 3.76602 11.5423 3.76562 11.084C3.76562 10.8401 3.56706 10.6419 3.32324 10.6416H0V2.78223C0.000192322 1.24561 1.24655 0 2.7832 0H29.2178ZM27.1318 22.6084C25.6911 22.6084 24.5225 23.777 24.5225 25.2178C24.5226 26.6584 25.6912 27.8262 27.1318 27.8262C28.5724 27.826 29.7401 26.6583 29.7402 25.2178C29.7402 23.7771 28.5725 22.6085 27.1318 22.6084Z" fill="#0F894C"/>
<path d="M45.7295 0.511719C46.5913 0.511767 47.408 0.789419 48.0078 1.41309C48.1117 1.52113 48.2067 1.63852 48.2939 1.76367C48.3028 1.24824 48.721 0.792969 49.2822 0.792969H51.0596C51.483 0.793152 51.8594 1.06369 51.9951 1.46484L53.1387 4.84668L54.2148 1.48047C54.3457 1.07106 54.7264 0.792969 55.1562 0.792969H56.8105C57.5044 0.792969 57.9821 1.48945 57.7324 2.13672L54.5283 10.4365L54.5273 10.4355C54.065 11.647 53.5635 12.5303 52.9189 13.1074C52.2526 13.7039 51.4789 13.9346 50.5742 13.9346C50.1567 13.9345 49.7553 13.8595 49.4531 13.7734C49.0208 13.6502 48.7902 13.2518 48.79 12.8701V11.6357C48.79 11.0901 49.2326 10.6475 49.7783 10.6475H49.7939C50.1658 10.6474 50.3865 10.604 50.5625 10.4854C50.7401 10.3654 50.9513 10.1138 51.1611 9.52051L51.2246 9.32715C51.2255 9.32454 51.2256 9.3219 51.2246 9.31934L48.9014 3.49414C48.9231 3.69003 48.9346 3.8945 48.9346 4.10742V9.22949C48.9346 9.77516 48.492 10.2178 47.9463 10.2178H46.2451C45.6994 10.2178 45.2568 9.77516 45.2568 9.22949V4.6543C45.2568 4.18243 45.1778 3.93271 45.0967 3.8125C45.0408 3.72966 44.9639 3.6748 44.7764 3.6748C44.5935 3.67488 44.436 3.75398 44.3066 3.93945C44.1684 4.13785 44.0625 4.46534 44.0625 4.91992V9.22949C44.0625 9.77514 43.6199 10.2177 43.0742 10.2178H41.3721C40.8266 10.2176 40.3848 9.77504 40.3848 9.22949V4.6543C40.3848 4.18236 40.3047 3.93269 40.2236 3.8125C40.1678 3.72981 40.0916 3.67482 39.9043 3.6748C39.7212 3.6748 39.563 3.75369 39.4336 3.93945C39.2954 4.13785 39.1895 4.46535 39.1895 4.91992V9.22949C39.1895 9.77502 38.7476 10.2175 38.2021 10.2178H36.5C35.9543 10.2178 35.5117 9.77516 35.5117 9.22949V1.78125C35.5117 1.23558 35.9543 0.792969 36.5 0.792969H38.4775C38.7413 0.792969 38.9688 0.938241 39.0918 1.15137C39.6338 0.714283 40.2859 0.51178 40.9814 0.511719C41.7396 0.511719 42.4663 0.745987 43.0264 1.26758C43.0725 1.31057 43.1628 1.35238 43.2764 1.35742C43.3904 1.36239 43.4692 1.32872 43.5049 1.29785C44.1277 0.758622 44.8958 0.511719 45.7295 0.511719Z" stroke="#0F894C" stroke-width="0.97605"/>
<path d="M36 20.2243V11.7756H38.7017V12.8844C39.2171 11.9318 40.0291 11.4945 40.9818 11.4945C41.95 11.4945 42.7933 11.9318 43.2306 12.8688C43.8084 11.9318 44.6829 11.4945 45.7293 11.4945C47.2441 11.4945 48.4466 12.4627 48.4466 14.6023V20.2243H45.7449V15.1488C45.7449 14.1337 45.4169 13.6809 44.7766 13.6809C44.0583 13.6809 43.5741 14.368 43.5741 15.4143V20.2243H40.8724V15.1488C40.8724 14.1337 40.5445 13.6809 39.9042 13.6809C39.1858 13.6809 38.7017 14.368 38.7017 15.4143V20.2243H36Z" fill="#0F894C"/>
<path d="M53.4701 20.5054C50.8621 20.5054 49.2223 18.7876 49.2223 16.0078C49.2223 13.1343 50.9089 11.4945 53.4701 11.4945C56.0625 11.4945 57.7022 13.228 57.7022 16.0078C57.7022 18.8656 56.0156 20.5054 53.4701 20.5054ZM53.4701 18.319C54.4227 18.319 54.9224 17.5226 54.9224 16.0078C54.9224 14.4929 54.4227 13.6809 53.4701 13.6809C52.5175 13.6809 52.0021 14.4929 52.0021 16.0078C52.0021 17.507 52.5175 18.319 53.4701 18.319Z" fill="#0F894C"/>
<path d="M58.4803 20.2243V11.7756H61.182V12.9156C61.7286 11.9474 62.5719 11.4945 63.587 11.4945C65.1643 11.4945 66.4136 12.4627 66.4136 14.6023V20.2243H63.6963V15.1488C63.6963 14.1337 63.3059 13.6809 62.5562 13.6809C61.7286 13.6809 61.182 14.368 61.182 15.4143V20.2243H58.4803Z" fill="#0F894C"/>
<path d="M75.6842 17.4445C75.247 19.381 73.6384 20.5054 71.4989 20.5054C68.8441 20.5054 67.1731 18.7876 67.1731 16.0078C67.1731 13.1343 68.8597 11.4945 71.4052 11.4945C73.9976 11.4945 75.6218 13.1967 75.6218 15.9765V16.57H69.9685C70.0934 17.7412 70.6244 18.3659 71.4989 18.3659C72.1861 18.3659 72.6077 18.0848 72.842 17.4445H75.6842ZM71.4052 13.634C70.6556 13.634 70.1871 14.1337 70.0153 15.0864H72.8108C72.639 14.1337 72.1549 13.634 71.4052 13.634Z" fill="#0F894C"/>
<path d="M77.3329 23.9411C76.8019 23.9411 76.2866 23.8005 76.0367 23.6912V21.6298H76.5521C77.3485 21.6298 77.9264 21.458 78.3792 20.1774L78.5042 19.8026L75.3027 11.7756H78.1762L79.5817 15.9297L79.8785 17.2571L80.222 15.9297L81.5494 11.7756H84.298L80.8311 20.7553C79.9253 23.129 78.9571 23.9411 77.3329 23.9411Z" fill="#0F894C"/>
<path d="M40.2793 21.5007C41.6088 21.5008 42.681 21.8942 43.4238 22.6072C44.1675 23.321 44.5302 24.3074 44.5303 25.3933V28.6101C44.5303 29.2465 44.5669 29.687 44.6152 30.0154C44.7007 30.597 44.2757 31.2067 43.6152 31.2068H41.6914C41.5672 31.2068 41.4122 31.1815 41.2676 31.0906C41.1501 31.0167 41.0574 30.9111 41.002 30.783C40.3339 31.2731 39.5363 31.488 38.749 31.488C37.8945 31.488 37.0859 31.2595 36.4824 30.7585C35.867 30.2476 35.5117 29.4913 35.5117 28.5476C35.5118 27.879 35.7065 27.262 36.1172 26.7439C36.5246 26.2299 37.1202 25.8443 37.873 25.5876C37.8924 25.5809 37.9123 25.5757 37.9316 25.5691H36.8711C36.298 25.569 35.7556 25.0375 35.9492 24.3816L36.0029 24.2126C36.5927 22.4906 38.217 21.5007 40.2793 21.5007ZM57.6211 21.5007C58.6364 21.5008 59.5794 21.7147 60.3389 22.1951C60.8534 22.5207 61.269 22.9613 61.5615 23.5134L61.4346 23.0164C61.274 22.3914 61.7454 21.7823 62.3906 21.782H64.2021C64.6802 21.7821 65.0892 22.125 65.1738 22.5955L65.8369 26.281L66.7539 22.5349C66.8622 22.0929 67.2588 21.782 67.7139 21.782H69.6631C70.1172 21.782 70.5128 22.0921 70.6221 22.533L71.543 26.2517L72.2021 22.5955C72.2868 22.125 72.6958 21.7822 73.1738 21.782H74.8594C75.465 21.7823 75.9182 22.3187 75.8389 22.9011L75.8154 23.0173L73.8877 30.4666C73.7748 30.9023 73.3818 31.2067 72.9316 31.2068H70.3555C69.8985 31.2068 69.5011 30.8933 69.3945 30.449L68.6172 27.2087L67.8408 30.449C67.7343 30.8932 67.3376 31.2066 66.8809 31.2068H64.3047C63.8538 31.2067 63.4599 30.9013 63.3477 30.4646L61.9053 24.8494C61.8035 25.2733 61.3966 25.5691 60.9668 25.5691H60.5664C60.8356 25.68 61.0947 25.8167 61.3271 25.991C61.9317 26.4442 62.3252 27.1219 62.3252 28.0955C62.3251 29.1125 61.8485 29.9777 61.0605 30.575C60.2807 31.166 59.2093 31.488 57.9951 31.488C56.9516 31.488 55.9925 31.2808 55.2158 30.8123C54.4989 30.3796 53.962 29.737 53.6641 28.8884V30.2185C53.6641 30.7641 53.2214 31.2067 52.6758 31.2068H50.958C50.4125 31.2066 49.9707 30.7641 49.9707 30.2185V25.6433C49.9707 25.184 49.8797 24.9479 49.7881 24.8328C49.7144 24.7403 49.59 24.6638 49.3184 24.6638C49.0528 24.6638 48.8502 24.7676 48.7031 24.9529C48.548 25.1484 48.4316 25.4661 48.4316 25.9089V30.2185C48.4316 30.7641 47.9899 31.2066 47.4443 31.2068H45.7422C45.1966 31.2067 44.7539 30.7641 44.7539 30.2185V22.7703C44.7539 22.2246 45.1966 21.7821 45.7422 21.782H47.707C47.9869 21.7821 48.2268 21.9423 48.3477 22.1746C48.9172 21.7157 49.6041 21.5008 50.3486 21.5007C51.2361 21.5007 52.0786 21.7746 52.6992 22.3953C53.2314 22.9274 53.5569 23.6728 53.6406 24.6062C53.6891 23.8145 54.0355 23.0562 54.6738 22.4861C55.3637 21.8701 56.3622 21.5007 57.6211 21.5007ZM89.7979 21.5007C90.1224 21.5008 90.4803 21.5634 90.7617 21.739C91.0652 21.9286 91.1289 22.254 91.1289 22.4509V23.9343C91.1287 24.5789 90.5502 24.9884 90 24.9539C89.9014 24.9477 89.794 24.9441 89.6729 24.9441C89.0818 24.9441 88.7272 25.1055 88.5166 25.3259C88.3022 25.5505 88.1611 25.9155 88.1611 26.4714V30.2185C88.1611 30.7641 87.7194 31.2066 87.1738 31.2068H85.4717C84.9261 31.2067 84.4834 30.7641 84.4834 30.2185V28.7468C83.7795 30.5172 82.095 31.4879 80.04 31.488C78.6048 31.488 77.3876 31.021 76.5303 30.1326C75.6749 29.246 75.2257 27.99 75.2256 26.5027C75.2256 24.9709 75.6768 23.71 76.5234 22.8298C77.3717 21.948 78.5666 21.5007 79.9463 21.5007C81.3525 21.5008 82.5434 21.9657 83.3809 22.8523C83.9163 23.4192 84.2863 24.1377 84.4834 24.9714V22.7703C84.4834 22.2246 84.9261 21.7821 85.4717 21.782H87.4482C87.7125 21.7821 87.9402 21.9278 88.0635 22.1414C88.5778 21.7067 89.1836 21.5007 89.7979 21.5007ZM40.8232 27.5662C40.0786 27.6282 39.6621 27.7663 39.4395 27.9099C39.2392 28.0391 39.1895 28.1726 39.1895 28.3455C39.1895 28.4717 39.2311 28.5434 39.2822 28.5886C39.3394 28.6392 39.4601 28.6999 39.6855 28.7C40.2197 28.7 40.7384 28.2746 40.8232 27.5662ZM56.9941 27.821C57.0869 27.921 57.1595 28.0251 57.2109 28.114C57.3156 28.2951 57.5781 28.4665 58.0732 28.4666C58.3796 28.4666 58.5354 28.4093 58.5996 28.3669C58.6264 28.3492 58.6341 28.3368 58.6367 28.3318C58.6397 28.3261 58.6474 28.3083 58.6475 28.2673C58.6475 28.2589 58.6555 28.2567 58.6182 28.2273C58.5582 28.1802 58.4376 28.121 58.2217 28.0613C58.0125 28.0034 57.7598 27.9566 57.4648 27.905C57.3162 27.879 57.1577 27.8506 56.9941 27.821ZM79.1006 27.5525C79.1911 27.8583 79.3159 28.0556 79.4531 28.1755C79.5936 28.2983 79.7796 28.3728 80.04 28.3728C80.2677 28.3728 80.4238 28.334 80.5352 28.2781C80.6413 28.2248 80.7334 28.142 80.8154 28.0046C80.9193 27.8307 81.0827 27.6577 81.2959 27.5525H79.1006ZM84.4834 27.113C84.3556 27.3039 84.1634 27.4471 83.9375 27.5125C84.1753 27.6014 84.3769 27.7807 84.4834 28.0095V27.113ZM53.6641 27.9382C53.8337 27.6435 54.1647 27.4509 54.5107 27.4509H55.5381C55.2069 27.3254 54.8852 27.1611 54.6035 26.9392C54.1064 26.5475 53.7617 25.9974 53.6641 25.2478V27.9382ZM40.1699 24.6638C39.8135 24.6638 39.655 24.7934 39.5752 24.9314C39.5227 25.0222 39.4496 25.1243 39.3574 25.2205C39.8316 25.1463 40.31 25.1086 40.8096 25.0906C40.7806 24.9446 40.7331 24.8598 40.6855 24.8113C40.6156 24.7402 40.474 24.6639 40.1699 24.6638ZM79.9463 24.6169C79.744 24.6169 79.5985 24.6671 79.4873 24.7468C79.3908 24.816 79.2972 24.9253 79.2148 25.0925H80.6885C80.6053 24.9282 80.5117 24.8186 80.4131 24.7488C80.2979 24.6672 80.1488 24.617 79.9463 24.6169ZM57.543 24.5232C57.3688 24.5232 57.2668 24.5668 57.2227 24.5994C57.2023 24.6144 57.1948 24.6259 57.1924 24.6306C57.1903 24.6345 57.1875 24.6428 57.1875 24.6599C57.1874 24.6718 57.1816 24.6782 57.2227 24.7107C57.2864 24.7611 57.4125 24.8226 57.6338 24.8845C57.8346 24.9407 58.0744 24.9871 58.3516 25.0359C58.3216 24.9879 58.2953 24.9392 58.2734 24.8914C58.2105 24.7541 58.131 24.6742 58.0361 24.6218C57.934 24.5655 57.7796 24.5232 57.543 24.5232Z" stroke="#0F894C" stroke-width="0.97605"/>
</svg>
