<svg width="32" height="32" viewBox="0 0 32 32" fill="none" xmlns="http://www.w3.org/2000/svg">
<path fill-rule="evenodd" clip-rule="evenodd" d="M29.2197 0C30.7558 0.000639335 32.0018 1.24601 32.002 2.78223V29.2168C32.002 30.7532 30.756 31.9994 29.2197 32H2.78516C1.24838 32 0 30.7536 0 29.2168V27.3086H3.26758C3.54344 27.3083 3.76758 27.0845 3.76758 26.8086V17.8203C3.76758 15.7562 4.7225 14.4004 6.13965 14.4004C7.40237 14.4006 8.04975 15.2939 8.0498 17.2959V26.8086C8.0498 27.0847 8.27366 27.3086 8.5498 27.3086H12.8799C13.1556 27.3081 13.3799 27.0844 13.3799 26.8086V17.8203C13.3799 15.7562 14.3348 14.4004 15.752 14.4004C17.0145 14.4008 17.6621 15.294 17.6621 17.2959V26.8086C17.6621 27.0847 17.886 27.3086 18.1621 27.3086H22.4912C22.7671 27.3083 22.9912 27.0846 22.9912 26.8086V16.2178C22.9912 11.9975 20.6189 10.0871 17.6309 10.0869C15.8707 10.0869 14.3567 10.7149 13.2422 12.0459C12.9868 12.3507 12.4678 12.3214 12.2363 11.998C11.3087 10.7 9.87452 10.0871 8.26562 10.0869C6.93785 10.0869 5.74796 10.518 4.80566 11.4336C4.47688 11.7531 3.76797 11.5423 3.76758 11.084C3.76758 10.8401 3.56901 10.6419 3.3252 10.6416H0V2.78223C0.000192223 1.24561 1.2485 0 2.78516 0H29.2197ZM27.1338 22.6084C25.6931 22.6084 24.5244 23.777 24.5244 25.2178C24.5246 26.6584 25.6932 27.8262 27.1338 27.8262C28.5743 27.826 29.742 26.6583 29.7422 25.2178C29.7422 23.7771 28.5744 22.6085 27.1338 22.6084Z" fill="#0F894C"/>
</svg>
